<svg width="4000" height="4000" viewBox="0 0 4000 4000" fill="none" xmlns="http://www.w3.org/2000/svg">
<path d="M0 0H4000V4000H0V0Z" fill="#6DF79C"/>
<path fill-rule="evenodd" clip-rule="evenodd" d="M4000 0H0V4000H4000V0ZM2140.62 957.781C2062.52 879.675 1935.88 879.675 1857.78 957.781L1157.78 1657.78C1079.68 1735.88 1079.68 1862.52 1157.78 1940.62C1235.88 2018.72 1362.52 2018.72 1440.62 1940.62L1799.2 1582.04V2899.2C1799.2 3009.66 1888.74 3099.2 1999.2 3099.2C2109.66 3099.2 2199.2 3009.66 2199.2 2899.2V1582.04L2557.78 1940.62C2635.88 2018.72 2762.52 2018.72 2840.62 1940.62C2918.73 1862.52 2918.73 1735.88 2840.62 1657.78L2140.62 957.781Z" fill="#131920"/>
</svg>
