<svg width="2500" height="2500" viewBox="0 0 2500 2500" fill="none" xmlns="http://www.w3.org/2000/svg">
<path fill-rule="evenodd" clip-rule="evenodd" d="M1250 2500C1581.52 2500 1899.46 2368.3 2133.88 2133.88C2368.3 1899.46 2500 1581.52 2500 1250C2500 918.479 2368.3 600.537 2133.88 366.117C1899.46 131.696 1581.52 0 1250 0C918.479 0 600.537 131.696 366.117 366.117C131.696 600.537 0 918.479 0 1250C0 1581.52 131.696 1899.46 366.117 2133.88C600.537 2368.3 918.479 2500 1250 2500ZM1829.22 1139.53L1360.47 670.781C1331.17 641.489 1291.43 625.033 1250 625.033C1208.57 625.033 1168.83 641.489 1139.53 670.781L670.781 1139.53C642.319 1169 626.57 1208.47 626.926 1249.44C627.282 1290.41 643.715 1329.6 672.685 1358.57C701.655 1387.54 740.844 1403.97 781.812 1404.32C822.781 1404.68 862.25 1388.93 891.719 1360.47L1093.75 1158.44V1718.75C1093.75 1760.19 1110.21 1799.93 1139.51 1829.24C1168.82 1858.54 1208.56 1875 1250 1875C1291.44 1875 1331.18 1858.54 1360.49 1829.24C1389.79 1799.93 1406.25 1760.19 1406.25 1718.75V1158.44L1608.28 1360.47C1637.75 1388.93 1677.22 1404.68 1718.19 1404.32C1759.16 1403.97 1798.35 1387.54 1827.32 1358.57C1856.29 1329.6 1872.72 1290.41 1873.07 1249.44C1873.43 1208.47 1857.68 1169 1829.22 1139.53Z" fill="url(#paint0_linear_8012_16961)"/>
<defs>
<linearGradient id="paint0_linear_8012_16961" x1="1250" y1="1376.67" x2="1250" y2="2500" gradientUnits="userSpaceOnUse">
<stop stop-color="#80CBC4"/>
<stop offset="0.9999" stop-color="#ACCB80"/>
<stop offset="1" stop-color="#CB8087"/>
</linearGradient>
</defs>
</svg>
