<svg width="18" height="18" viewBox="0 0 18 18" fill="none" xmlns="http://www.w3.org/2000/svg">
<path d="M0 18L0 0H18V18H0Z" fill="white"/>
<path fill-rule="evenodd" clip-rule="evenodd" d="M0 0L0 18H18V0H0ZM4.31002 8.3672C3.95854 8.71868 3.95854 9.28852 4.31002 9.64L7.46002 12.79C7.81147 13.1415 8.38133 13.1415 8.73278 12.79C9.08426 12.4385 9.08426 11.8687 8.73278 11.5172L7.1192 9.9036H13.0464C13.5435 9.9036 13.9464 9.50065 13.9464 9.0036C13.9464 8.50655 13.5435 8.1036 13.0464 8.1036H7.1192L8.73278 6.49C9.08426 6.13852 9.08426 5.56868 8.73278 5.2172C8.38133 4.86574 7.81147 4.86574 7.46002 5.2172L4.31002 8.3672Z" fill="#FFC658"/>
</svg>
